<svg width="800" height="400" viewBox="0 0 800 400" xmlns="http://www.w3.org/2000/svg"><mask id="satori_om-id"><rect x="0" y="0" width="800" height="400" fill="#fff"/></mask><rect x="0" y="0" width="800" height="400" fill="#fff"/><mask id="satori_om-id-0"><rect x="268" y="181" width="264" height="38" fill="#fff"/></mask><path fill="black" d="M279.3 203.9L279.3 187.7L284.2 187.7L284.2 203.9Q284.2 206.2 283.2 207.8Q282.2 209.5 280.4 210.4Q278.6 211.3 276.3 211.3L276.3 211.3Q274.2 211.3 272.4 210.5Q270.7 209.8 269.7 208.3Q268.7 206.7 268.8 204.4L268.8 204.4L273.6 204.4Q273.7 205.3 274.0 206.0Q274.4 206.6 275.0 207.0Q275.6 207.3 276.5 207.3L276.5 207.3Q277.4 207.3 278.1 206.9Q278.7 206.5 279.0 205.8Q279.3 205.0 279.3 203.9L279.3 203.9ZM296.1 211.3L296.1 211.3Q293.4 211.3 291.5 210.2Q289.6 209.1 288.5 207.1Q287.5 205.1 287.5 202.3L287.5 202.3Q287.5 199.6 288.5 197.6Q289.6 195.5 291.5 194.4Q293.4 193.3 295.9 193.3L295.9 193.3Q297.7 193.3 299.2 193.8Q300.6 194.4 301.8 195.5Q302.9 196.6 303.5 198.2Q304.1 199.9 304.1 202.1L304.1 202.1L304.1 203.5L289.4 203.5L289.4 200.5L299.6 200.5Q299.6 199.4 299.1 198.6Q298.7 197.8 297.9 197.3Q297.1 196.9 296.0 196.9L296.0 196.9Q294.9 196.9 294.1 197.4Q293.2 197.9 292.7 198.7Q292.3 199.6 292.3 200.6L292.3 200.6L292.3 203.5Q292.3 204.8 292.7 205.7Q293.2 206.7 294.1 207.2Q295.0 207.7 296.2 207.7L296.2 207.7Q297.0 207.7 297.7 207.5Q298.4 207.2 298.8 206.8Q299.3 206.3 299.6 205.7L299.6 205.7L304.0 206.0Q303.7 207.6 302.6 208.8Q301.6 210.0 299.9 210.6Q298.3 211.3 296.1 211.3ZM312.1 211.0L307.3 211.0L307.3 193.5L312.0 193.5L312.0 196.5L312.2 196.5Q312.6 194.9 313.8 194.1Q314.9 193.2 316.4 193.2L316.4 193.2Q316.7 193.2 317.1 193.3Q317.6 193.3 317.9 193.4L317.9 193.4L317.9 197.7Q317.5 197.6 316.9 197.5Q316.3 197.5 315.8 197.5L315.8 197.5Q314.8 197.5 313.9 197.9Q313.1 198.4 312.6 199.2Q312.1 200.0 312.1 201.1L312.1 201.1L312.1 211.0ZM325.2 211.0L320.4 211.0L320.4 193.5L325.1 193.5L325.1 196.5L325.3 196.5Q325.7 194.9 326.9 194.1Q328.0 193.2 329.4 193.2L329.4 193.2Q329.8 193.2 330.2 193.3Q330.6 193.3 331.0 193.4L331.0 193.4L331.0 197.7Q330.6 197.6 330.0 197.5Q329.4 197.5 328.9 197.5L328.9 197.5Q327.9 197.5 327.0 197.9Q326.2 198.4 325.7 199.2Q325.2 200.0 325.2 201.1L325.2 201.1L325.2 211.0ZM340.6 211.3L340.6 211.3Q337.9 211.3 336.0 210.2Q334.0 209.1 333.0 207.1Q331.9 205.1 331.9 202.3L331.9 202.3Q331.9 199.6 333.0 197.6Q334.0 195.5 335.9 194.4Q337.8 193.3 340.4 193.3L340.4 193.3Q342.1 193.3 343.6 193.8Q345.1 194.4 346.2 195.5Q347.4 196.6 348.0 198.2Q348.6 199.9 348.6 202.1L348.6 202.1L348.6 203.5L333.9 203.5L333.9 200.5L344.0 200.5Q344.0 199.4 343.6 198.6Q343.1 197.8 342.3 197.3Q341.5 196.9 340.5 196.9L340.5 196.9Q339.4 196.9 338.5 197.4Q337.7 197.9 337.2 198.7Q336.7 199.6 336.7 200.6L336.7 200.6L336.7 203.5Q336.7 204.8 337.2 205.7Q337.7 206.7 338.6 207.2Q339.5 207.7 340.7 207.7L340.7 207.7Q341.5 207.7 342.1 207.5Q342.8 207.2 343.3 206.8Q343.8 206.3 344.0 205.7L344.0 205.7L348.5 206.0Q348.2 207.6 347.1 208.8Q346.1 210.0 344.4 210.6Q342.8 211.3 340.6 211.3ZM358.2 211.2L358.2 211.2Q356.2 211.2 354.6 210.2Q353.0 209.2 352.1 207.2Q351.1 205.2 351.1 202.2L351.1 202.2Q351.1 199.2 352.1 197.3Q353.0 195.3 354.7 194.3Q356.3 193.3 358.2 193.3L358.2 193.3Q359.6 193.3 360.6 193.8Q361.6 194.3 362.2 195.0Q362.8 195.7 363.1 196.4L363.1 196.4L363.3 196.4L363.3 187.7L368.1 187.7L368.1 211.0L363.4 211.0L363.4 208.2L363.1 208.2Q362.8 208.9 362.2 209.6Q361.6 210.3 360.6 210.8Q359.6 211.2 358.2 211.2ZM359.7 207.4L359.7 207.4Q360.9 207.4 361.7 206.7Q362.5 206.1 363.0 204.9Q363.4 203.8 363.4 202.2L363.4 202.2Q363.4 200.7 363.0 199.5Q362.5 198.4 361.7 197.7Q360.9 197.1 359.7 197.1L359.7 197.1Q358.5 197.1 357.7 197.8Q356.9 198.4 356.5 199.6Q356.1 200.7 356.1 202.2L356.1 202.2Q356.1 203.7 356.5 204.9Q356.9 206.1 357.7 206.7Q358.5 207.4 359.7 207.4Z M397.8 194.4L393.0 194.4Q392.9 193.0 391.9 192.2Q390.8 191.5 389.1 191.5L389.1 191.5Q387.9 191.5 387.0 191.8Q386.2 192.1 385.8 192.7Q385.3 193.3 385.3 194.1L385.3 194.1Q385.3 194.7 385.6 195.2Q385.9 195.6 386.4 196.0Q386.9 196.3 387.6 196.5Q388.3 196.8 389.0 197.0L389.0 197.0L391.1 197.5Q392.6 197.8 393.9 198.4Q395.2 198.9 396.1 199.8Q397.0 200.6 397.6 201.7Q398.1 202.8 398.1 204.3L398.1 204.3Q398.1 206.4 397.0 208.0Q395.9 209.6 393.9 210.4Q391.9 211.3 389.0 211.3L389.0 211.3Q386.2 211.3 384.1 210.4Q382.1 209.6 380.9 207.9Q379.7 206.2 379.7 203.6L379.7 203.6L384.4 203.6Q384.5 204.8 385.1 205.6Q385.7 206.4 386.7 206.8Q387.7 207.2 389.0 207.2L389.0 207.2Q390.2 207.2 391.2 206.8Q392.1 206.4 392.6 205.8Q393.1 205.1 393.1 204.3L393.1 204.3Q393.1 203.5 392.7 203.0Q392.2 202.4 391.3 202.1Q390.4 201.7 389.2 201.4L389.2 201.4L386.6 200.7Q383.7 200.0 382.0 198.5Q380.3 197.0 380.3 194.4L380.3 194.4Q380.3 192.3 381.4 190.7Q382.6 189.1 384.6 188.2Q386.6 187.4 389.1 187.4L389.1 187.4Q391.7 187.4 393.6 188.2Q395.6 189.1 396.6 190.7Q397.7 192.3 397.8 194.4L397.8 194.4ZM406.1 200.9L406.1 200.9L406.1 211.0L401.3 211.0L401.3 187.7L406.0 187.7L406.0 196.6L406.2 196.6Q406.8 195.0 408.1 194.2Q409.4 193.3 411.4 193.3L411.4 193.3Q413.2 193.3 414.6 194.1Q415.9 194.8 416.7 196.3Q417.5 197.8 417.4 199.8L417.4 199.8L417.4 211.0L412.6 211.0L412.6 200.7Q412.6 199.1 411.8 198.2Q411.0 197.3 409.5 197.3L409.5 197.3Q408.5 197.3 407.7 197.7Q407.0 198.1 406.6 198.9Q406.1 199.7 406.1 200.9ZM429.2 211.3L429.2 211.3Q426.5 211.3 424.6 210.2Q422.6 209.1 421.6 207.1Q420.6 205.1 420.6 202.3L420.6 202.3Q420.6 199.6 421.6 197.6Q422.6 195.5 424.6 194.4Q426.5 193.3 429.0 193.3L429.0 193.3Q430.8 193.3 432.2 193.8Q433.7 194.4 434.9 195.5Q436.0 196.6 436.6 198.2Q437.2 199.9 437.2 202.1L437.2 202.1L437.2 203.5L422.5 203.5L422.5 200.5L432.7 200.5Q432.7 199.4 432.2 198.6Q431.8 197.8 431.0 197.3Q430.2 196.9 429.1 196.9L429.1 196.9Q428 196.9 427.2 197.4Q426.3 197.9 425.8 198.7Q425.4 199.6 425.3 200.6L425.3 200.6L425.3 203.5Q425.3 204.8 425.8 205.7Q426.3 206.7 427.2 207.2Q428.1 207.7 429.3 207.7L429.3 207.7Q430.1 207.7 430.8 207.5Q431.4 207.2 431.9 206.8Q432.4 206.3 432.6 205.7L432.6 205.7L437.1 206.0Q436.8 207.6 435.7 208.8Q434.7 210.0 433.0 210.6Q431.4 211.3 429.2 211.3ZM445.2 217.5L440.4 217.5L440.4 193.5L445.2 193.5L445.2 196.4L445.4 196.4Q445.7 195.7 446.3 195.0Q446.9 194.3 447.9 193.8Q448.9 193.3 450.3 193.3L450.3 193.3Q452.3 193.3 453.9 194.3Q455.5 195.3 456.4 197.3Q457.4 199.2 457.4 202.2L457.4 202.2Q457.4 205.2 456.5 207.2Q455.5 209.2 453.9 210.2Q452.3 211.2 450.3 211.2L450.3 211.2Q448.9 211.2 447.9 210.8Q447.0 210.3 446.3 209.6Q445.7 208.9 445.4 208.2L445.4 208.2L445.2 208.2L445.2 217.5ZM445.1 202.2L445.1 202.2Q445.1 203.8 445.6 204.9Q446.0 206.1 446.8 206.7Q447.6 207.4 448.8 207.4L448.8 207.4Q450.0 207.4 450.8 206.7Q451.6 206.1 452.0 204.9Q452.5 203.7 452.5 202.2L452.5 202.2Q452.5 200.7 452.0 199.6Q451.6 198.4 450.8 197.8Q450.0 197.1 448.8 197.1L448.8 197.1Q447.6 197.1 446.8 197.7Q446.0 198.4 445.6 199.5Q445.1 200.7 445.1 202.2ZM465.5 200.9L465.5 200.9L465.5 211.0L460.6 211.0L460.6 187.7L465.3 187.7L465.3 196.6L465.5 196.6Q466.1 195.0 467.4 194.2Q468.8 193.3 470.8 193.3L470.8 193.3Q472.6 193.3 473.9 194.1Q475.3 194.8 476.0 196.3Q476.8 197.8 476.8 199.8L476.8 199.8L476.8 211.0L471.9 211.0L471.9 200.7Q472.0 199.1 471.1 198.2Q470.3 197.3 468.8 197.3L468.8 197.3Q467.8 197.3 467.1 197.7Q466.3 198.1 465.9 198.9Q465.5 199.7 465.5 200.9ZM488.6 211.3L488.6 211.3Q485.9 211.3 483.9 210.2Q482.0 209.1 480.9 207.1Q479.9 205.1 479.9 202.3L479.9 202.3Q479.9 199.6 480.9 197.6Q482.0 195.5 483.9 194.4Q485.8 193.3 488.4 193.3L488.4 193.3Q490.1 193.3 491.6 193.8Q493.1 194.4 494.2 195.5Q495.3 196.6 495.9 198.2Q496.6 199.9 496.6 202.1L496.6 202.1L496.6 203.5L481.8 203.5L481.8 200.5L492.0 200.5Q492.0 199.4 491.6 198.6Q491.1 197.8 490.3 197.3Q489.5 196.9 488.4 196.9L488.4 196.9Q487.3 196.9 486.5 197.4Q485.6 197.9 485.2 198.7Q484.7 199.6 484.7 200.6L484.7 200.6L484.7 203.5Q484.7 204.8 485.2 205.7Q485.6 206.7 486.5 207.2Q487.4 207.7 488.6 207.7L488.6 207.7Q489.4 207.7 490.1 207.5Q490.8 207.2 491.3 206.8Q491.7 206.3 492.0 205.7L492.0 205.7L496.5 206.0Q496.1 207.6 495.1 208.8Q494.0 210.0 492.4 210.6Q490.7 211.3 488.6 211.3ZM504.6 211.0L499.7 211.0L499.7 193.5L504.4 193.5L504.4 196.5L504.6 196.5Q505.1 194.9 506.2 194.1Q507.3 193.2 508.8 193.2L508.8 193.2Q509.2 193.2 509.6 193.3Q510 193.3 510.3 193.4L510.3 193.4L510.3 197.7Q510.0 197.6 509.4 197.5Q508.8 197.5 508.3 197.5L508.3 197.5Q507.2 197.5 506.4 197.9Q505.5 198.4 505.1 199.2Q504.6 200.0 504.6 201.1L504.6 201.1L504.6 211.0ZM518.4 211.2L518.4 211.2Q516.4 211.2 514.8 210.2Q513.2 209.2 512.3 207.2Q511.3 205.2 511.3 202.2L511.3 202.2Q511.3 199.2 512.3 197.3Q513.3 195.3 514.9 194.3Q516.5 193.3 518.4 193.3L518.4 193.3Q519.9 193.3 520.9 193.8Q521.8 194.3 522.4 195.0Q523.1 195.7 523.4 196.4L523.4 196.4L523.5 196.4L523.5 187.7L528.4 187.7L528.4 211.0L523.6 211.0L523.6 208.2L523.4 208.2Q523.0 208.9 522.4 209.6Q521.8 210.3 520.8 210.8Q519.8 211.2 518.4 211.2ZM520.0 207.4L520.0 207.4Q521.1 207.4 521.9 206.7Q522.8 206.1 523.2 204.9Q523.6 203.8 523.6 202.2L523.6 202.2Q523.6 200.7 523.2 199.5Q522.8 198.4 521.9 197.7Q521.1 197.1 520.0 197.1L520.0 197.1Q518.8 197.1 517.9 197.8Q517.1 198.4 516.7 199.6Q516.3 200.7 516.3 202.2L516.3 202.2Q516.3 203.7 516.7 204.9Q517.1 206.1 517.9 206.7Q518.8 207.4 520.0 207.4Z "/></svg>