<?xml version="1.0" standalone="no"?>
<!DOCTYPE svg PUBLIC "-//W3C//DTD SVG 20010904//EN"
 "http://www.w3.org/TR/2001/REC-SVG-20010904/DTD/svg10.dtd">
<svg version="1.0" xmlns="http://www.w3.org/2000/svg"
 width="700.000000pt" height="700.000000pt" viewBox="0 0 700.000000 700.000000"
 preserveAspectRatio="xMidYMid meet">
<metadata>
Created by potrace 1.14, written by Peter Selinger 2001-2017
</metadata>
<g transform="translate(0.000000,700.000000) scale(0.100000,-0.100000)"
fill="#000000" stroke="none">
<path d="M249 6981 c-75 -24 -141 -73 -183 -135 -72 -106 -66 188 -66 -3346 0
-2864 2 -3192 16 -3241 33 -115 128 -210 243 -243 49 -14 377 -16 3241 -16
2864 0 3192 2 3241 16 115 33 210 128 243 243 14 49 16 377 16 3241 0 2864 -2
3192 -16 3241 -33 115 -128 210 -243 243 -49 14 -377 16 -3245 15 -3047 0
-3194 -1 -3247 -18z m2871 -1466 l0 -355 -430 0 -430 0 0 355 0 355 430 0 430
0 0 -355z m2297 -659 c207 -28 607 -105 635 -123 8 -4 12 -653 5 -653 -2 0
-57 20 -123 45 -204 78 -363 121 -570 157 -170 29 -472 31 -578 5 -132 -33
-202 -88 -225 -174 -24 -89 11 -170 94 -215 69 -37 135 -52 417 -92 307 -44
469 -77 619 -126 254 -83 380 -180 464 -355 66 -137 93 -322 75 -503 -45 -442
-357 -688 -952 -752 -163 -17 -511 -12 -703 10 -242 27 -616 100 -721 140
l-24 10 0 320 c0 209 4 320 10 320 6 0 56 -20 113 -44 192 -82 428 -147 642
-178 137 -19 483 -17 568 5 86 22 142 50 190 96 46 44 72 121 62 184 -23 134
-117 186 -420 227 -287 39 -467 71 -589 106 -388 111 -566 303 -606 654 -22
187 3 356 76 508 123 256 395 399 849 446 91 9 585 -3 692 -18z m-2300 -1478
c-3 -1421 -3 -1444 -24 -1538 -104 -472 -377 -722 -844 -770 -56 -5 -206 -10
-335 -10 l-234 0 0 285 0 285 118 0 c319 1 422 86 452 374 6 53 10 660 10
1454 l0 1362 430 0 431 0 -4 -1442z"/>
</g>
</svg>
