<?xml version="1.0" standalone="no"?>
<!DOCTYPE svg PUBLIC "-//W3C//DTD SVG 20010904//EN"
 "http://www.w3.org/TR/2001/REC-SVG-20010904/DTD/svg10.dtd">
<svg version="1.0" xmlns="http://www.w3.org/2000/svg"
 width="700.000000pt" height="700.000000pt" viewBox="0 0 700.000000 700.000000"
 preserveAspectRatio="xMidYMid meet">
<metadata>
Created by potrace 1.14, written by Peter Selinger 2001-2017
</metadata>
<g transform="translate(0.000000,700.000000) scale(0.100000,-0.100000)"
fill="#000000" stroke="none">
<path d="M243 6986 c-88 -28 -176 -107 -216 -194 l-22 -47 0 -3245 0 -3245 28
-56 c32 -67 109 -142 175 -172 l47 -22 3245 0 3245 0 56 28 c67 32 142 109
172 175 l22 47 0 3245 0 3245 -22 47 c-30 66 -105 143 -172 175 l-56 28 -3230
2 c-2638 1 -3238 -1 -3272 -11z m4962 -1936 c280 -48 480 -141 744 -346 11 -9
-9 -36 -109 -142 -67 -73 -125 -132 -129 -132 -3 0 -40 25 -81 56 -102 76
-292 168 -413 199 -232 59 -481 52 -671 -19 -137 -52 -234 -137 -289 -254 -26
-56 -32 -82 -35 -161 -6 -119 9 -184 58 -260 92 -142 308 -254 744 -386 442
-133 624 -222 792 -389 177 -177 253 -391 241 -681 -7 -162 -30 -258 -97 -390
-136 -271 -389 -445 -765 -525 -128 -27 -459 -38 -615 -21 -350 40 -672 172
-883 361 l-57 52 112 126 c61 70 117 133 123 140 10 11 31 -1 114 -65 213
-167 425 -248 713 -274 310 -29 589 51 753 216 123 123 171 257 162 450 -8
167 -44 253 -148 350 -106 99 -234 161 -517 251 -97 30 -231 74 -297 96 -577
198 -835 451 -862 844 -33 490 341 860 932 924 114 12 348 3 480 -20z m-2298
-1277 l-3 -1248 -22 -90 c-64 -260 -151 -424 -298 -566 -147 -139 -309 -218
-550 -265 -138 -27 -415 -25 -561 4 -137 27 -286 78 -406 138 -120 61 -229
134 -223 150 4 10 157 244 171 262 2 2 38 -17 82 -41 398 -220 810 -245 1080
-64 135 90 227 230 281 426 l27 96 3 1053 3 1052 -501 0 -500 0 0 170 0 170
710 0 711 0 -4 -1247z"/>
</g>
</svg>
